<?xml version="1.0" encoding="utf-8"?>
<!-- Generator: Adobe Illustrator 22.0.1, SVG Export Plug-In . SVG Version: 6.00 Build 0)  -->
<svg version="1.1" id="Layer_1" xmlns="http://www.w3.org/2000/svg" xmlns:xlink="http://www.w3.org/1999/xlink" x="0px" y="0px"
	 viewBox="0 0 1240 1024" style="enable-background:new 0 0 1240 1024;" xml:space="preserve">
<style type="text/css">
	.st0{fill:#00254A;}
	.st1{fill:#FFFFFF;stroke:#000000;stroke-miterlimit:10;}
</style>
<ellipse class="st0" cx="620" cy="512" rx="876.8" ry="724.1"/>
<g transform="translate(-63.7 -69.53)">
	<path class="st1" d="M961.3,457.6c-0.8,35.2-8.6,70.9-35.2,92.6c-5.6,4.5-12.6,10.5-10.2,17.3c5.2-0.1,10.1,2.3,13.3,6.3
		c-4.4,1.4-9,1.8-13.5,1.1c2.2,14.9,1.1,30.6-5.4,44.2c-6.4,13.6-18.7,24.9-33.4,28.1c-5.9,1.3-12.3,1.2-17.6-1.7
		c-13.6-7.4-12-28.4-3-41c9-12.6,22.9-21.3,31-34.5c-42-4.7-84.5-3.9-126.3,2.5c15,19.7,28.2,40.7,39.3,62.8
		c-5.3,2.9-12.3,2.1-17-1.8c-6.8-18.4-15.5-36.1-25.8-52.8c-1.7-2.8-3.6-5.6-6.5-7.1c-2.6-1.3-5.6-1.3-8.5-1.3
		c-49.6,0.7-98.8,9.3-145.8,25.5c-4.3,1.5-8.8,3.2-11.2,7.1c-2.4,3.9-1.9,8.8-1.7,13.4c2.3,44.1-27.9,84.7-65.7,107.7
		c-14.9,9.1-32.3,16.2-49.5,13.1c-17.2-3.1-32.8-19.7-29.1-36.8c1.7-8.1,7.1-14.5,11.2-21.4c6.2-10.4,4.9-13.7,0.2-24.3
		c-9.3-21.2-18.6-42.4-27.8-63.6l-17.8,15.6c-1.2-4.6,3.5-8.3,6.5-12c7.3-9.2,4.3-22.9-1-33.4s-12.7-20.6-13.5-32.3l11.2-8.6
		l22,50.1c21.1-18.2,34.8-44.9,37.4-72.6c0.3-3.4,0.4-7.2-1.8-9.8c-2.5-2.9-6.8-3.3-10.6-3c-21,1.2-40.5,12.6-54.5,28.3
		s-22.9,35.3-29,55.4c-1.4,4.6-8.2,9.6-9.4,4.9c-0.2-0.9,0-1.9,0.3-2.7c11.2-41,40.6-76.6,78.8-95.3c11.1-5.5,26-8.9,34.7-0.1
		c8.7,8.8,5,23.5,0,34.9c-7.5,17.1-16.5,33.4-27.1,48.7c21.8-16.4,47.5-26.6,74.6-29.7c8.9-1,18.1-1.2,26.5,1.9
		c23.5,8.6,31.1,37.4,35.4,62c51.3-19.2,105.6-29.2,160.5-29.7c-4.4-9.7-11-18.3-19.2-25.2c-8.5,18.2-34.1,25.8-51.1,15.1
		c-1,13.5-22.1,18.1-31,7.8c-8.9-10.3-5.1-27.4,5.1-36.3c4.4-3.8,10.5-6.6,16.1-5c12.6,3.7,12.2,24.6,24.3,29.7
		c11.6,4.8,22.1-8.5,27.7-19.7l-22.3-19c10-1.2,20.5,4,25.7,12.7c2.1-10.7,7.9-20.2,16.3-27.1c3.5,11.7,0.8,25.1-6.9,34.5
		c7.4,12.2,16,25.4,29.8,29.2c5.2,1.4,10.6,1.3,15.9,1.2l112.2-2.1c2.9-0.1,6-0.1,8.6-1.4c5.3-2.4,7.7-9,7.2-14.8
		c-0.5-5.8-3.4-11.1-6.3-16.2c-6.2,15.3-31.4,17-39.7,2.8c-6.9,14.7-26.4,22-41.3,15.4c-14.9-6.6-22.6-25.9-16.4-40.9
		c3.5-8.5,11.5-15.5,20.7-16c9.2-0.5,18.7,6.9,18.8,16.1c0.2,12.1-13.4,19.3-25.1,22.6c2.3,12.7,22.2,14.1,30.9,4.5
		c8.7-9.5,9.2-23.8,9.1-36.7c4.3-4.2,12.1-0.4,14.4,5.2c2.3,5.6,1.1,11.9,1.2,17.9c0.1,6,2.2,13,7.9,15.1
		c14.2-6.1,22.8-23.2,19-38.3c2.5-3.3,8.1-2.2,10.6,1.1c2.5,3.3,2.8,7.6,3,11.8c0.6,13,1.2,26,1.9,39.1
		c19.2-8.2,27.7-30.6,31.4-51.1c5.7-31.5,5-63.9-2.1-95.1c-2.2-9.5-5.4-19.6-13.4-25.1c-14.1-9.9-33.7,0-46,12.1
		c-19.1,18.6-34.6,43.7-60.3,50.8l46-48.2c13.6-14.2,30-29.6,49.6-27.8c14.8,1.3,27.2,12.8,33.6,26.2c6.4,13.4,7.8,28.6,8.6,43.5
		C961.2,441.6,961.4,449.6,961.3,457.6L961.3,457.6z M517.1,542.1c-30,4.2-58.7,17.5-81.3,37.7c-0.6,0.5-1.1,1-1.3,1.7
		c-0.3,1,0.1,2,0.6,3l9.2,19.7c8,17.1,14.4,37,24.6,52.8c7.8-3.3,15.3-11,22.5-15.8c7.8-5.2,15.8-10.1,24-14.7
		c16.4-9.2,33.4-17.1,51.1-23.6c1-0.4,2.1-0.8,2.7-1.7c0.5-0.8,0.5-1.9,0.5-3c-0.6-10.9-3-21.6-7-31.7c-3.3-8.2-8-16.3-15.5-20.9
		c-8.6-5.2-19.4-5-29.4-3.7L517.1,542.1z M464.2,683.1c0,0-2.8-3.8-3.2-4.1c-7.4,5.2-7.7,17.9-4.6,25.6c3.6,8.8,11.8,15.2,20.9,18
		c9.1,2.8,18.9,2.4,28.1,0.2c13.2-3.2,25.4-9.8,35.2-19.2c12.3-11.8,20.4-27.5,24.8-44c4.4-16.5,5.3-33.7,4.6-50.8
		c-35.2,11.8-67.8,30.2-96.1,54.3c-1,0.8-2,1.8-2.1,3.1c0,1.7,1.7,2.8,2.6,4.2c1.8,2.7,0.6,6.5-1.7,8.7
		C470.5,681.3,467.3,682.3,464.2,683.1L464.2,683.1z M864.1,627.6c0.2,3.1,0.8,6.1,2,9c0.3,0.7,0.6,1.4,1.2,1.9c0.8,0.7,2,0.7,3,0.7
		c13.4-0.2,26.2-9.3,30.9-21.8c5-13.2,1.3-28,2.6-42c0.1-1.1,0.2-2.4-0.6-3.2c-1.4-1.5-3.8-0.2-5.3,1.1c-8.8,7.5-17.6,15.4-24.1,25
		C868.1,606.6,863.5,617.3,864.1,627.6L864.1,627.6z M670.6,551.4c-2.6-3.1-3.2-7.4-4.1-11.3c-0.9-4-2.4-8.2-5.9-10.2
		c-2.6-1.5-20.7,36,1.5,28.4C665.6,557.1,668.3,554.3,670.6,551.4L670.6,551.4z M827,507.8c-0.1-2.5,0.2-4.8-2.2-6.4
		c-1-0.6-1.9-1-2.9-0.6c-2.3,1.1-4.5,2.3-5.7,4.7c-1.2,2.3-2.4,4.6-2.9,7.2c-0.4,2-0.8,4-1,6c0,0.6,0,1.2,0.8,1.1
		c1.9-0.2,3.8,0,5.6-0.5c3.2-0.8,5.8-2.4,7.3-5.5c0.2-0.4,0.6-0.8,0.6-1.3C826.6,510.9,827.2,509.3,827,507.8L827,507.8z"/>
	<path class="st1" d="M765,434.4l0.4-0.2c6.1,38.3,15,76.1,26.4,113.1c0.4,1.2,0.7,2.4,0.6,3.6c-0.3,3.1-3.8,5-6.8,4.8
		c-10-0.6-10.7-9-12.8-16.8c-2.7-10.5-5.3-21.1-7.8-31.7c-4.8-20.7-9.2-41.5-13-62.4c-0.2-1.1-0.4-2.3,0.1-3.3
		c0.5-1,1.6-1.6,2.6-2.1L765,434.4z"/>
	<path class="st1" d="M613.4,530.2c-2.4,1.6-4.8,3.3-6.2,5.8c-2.3,4.1-1.1,9.2,0.3,13.7c2.3,7.3,5,14.4,8.2,21.3
		c0.7,1.5,1.4,3.1,1.2,4.8c-0.5,2.8-3.6,4.3-6.4,4.6c-7.8,0.6-8.7,0.3-11.3-6.8c-2.1-5.6-4-11.2-6.1-16.8c-0.9-2.4-1.9-5-3.9-6.5
		c-1.3-1-3.1-1.5-4-2.8c-1.8-2.5,0.4-6.3,3.4-7.1c3-0.9,6.1,0.2,9,1.3c1.3-4.7,2.7-9.6,5.7-13.5c3-3.9,8.2-6.5,12.9-5.1
		c4.4,1.3,7.2,5.5,9.4,9.5c1.3,2.3,2.4,5.2,1,7.4c-1.8,2.8-6.5,2-8.7-0.6c-2.2-2.6-2.8-6.1-4.1-9.2L613.4,530.2z"/>
</g>
</svg>
